<?xml version="1.0" encoding="utf-8"?>
<!-- Generator: Adobe Illustrator 18.0.0, SVG Export Plug-In . SVG Version: 6.00 Build 0)  -->
<!DOCTYPE svg PUBLIC "-//W3C//DTD SVG 1.1//EN" "http://www.w3.org/Graphics/SVG/1.1/DTD/svg11.dtd">
<svg version="1.1" id="Capa_1" xmlns="http://www.w3.org/2000/svg" xmlns:xlink="http://www.w3.org/1999/xlink" x="0px" y="0px"
	 viewBox="0 0 386 546" enable-background="new 0 0 386 546" xml:space="preserve">
<path fill="#91398B" d="M107.6,538.3c-15.1,0-31.1-6.1-46-18.1c-29.2-23.5-59.7-76.9-49.8-150c0.8-5.7,5.5-9.6,10.6-8.7
	c5.1,0.9,8.6,6.2,7.8,11.8c-8.6,63.8,17.4,109.9,42.3,130c18.1,14.6,37.8,18.2,52.8,9.6c19.9-11.4,30.9-42.7,30.9-88V53
	c0-5.7,4.2-10.4,9.3-10.4c5.1,0,9.3,4.7,9.3,10.4v371.9c0,72.2-25.7,97.7-41,106.5C125.6,536.1,116.8,538.3,107.6,538.3"/>
<path fill="#91398B" d="M199.3,543.2V365.4c0-5.7,4.2-10.4,9.3-10.4c5.1,0,9.3,4.7,9.3,10.4v142.5c24.7-18.5,111.4-74.6,129.1-154.3
	c19.8-89.2,14-154.4-58.8-270c-3-4.7-2-11.2,2.2-14.5c4.2-3.3,10-2.2,12.9,2.5c76.2,120.9,82.9,192,61.6,287.3
	c-25.7,115-148.5,174.6-152.2,176.7L199.3,543.2z"/>
<path fill="#874091" d="M297,89c-2.9,0-5.7-1.5-7.5-4.4c-13.9-22.6-17.1-41.5-9.8-56.2c13.3-26.6,55.3-24.9,60-24.6
	c5,0.3,8.8,5.1,8.6,10.6c-0.3,5.6-4.3,9.9-9.5,9.6c-11.4-0.6-37.1,2-43.2,14.2c-4.6,9.2,2.3,24,8.9,34.8c2.8,4.6,1.8,10.9-2.3,14.1
	C300.6,88.4,298.8,89,297,89"/>
<polyline fill="none" stroke="#91398B" stroke-width="20" stroke-linecap="round" stroke-linejoin="round" stroke-miterlimit="10" points="
	209.6,162.5 209.6,317.1 209.6,162.5 "/>
</svg>
